<svg width="171" height="67" viewBox="0 0 171 67" fill="none" xmlns="http://www.w3.org/2000/svg">
<path d="M128.201 27.6977C129.981 28.2912 133.543 26.9063 135.125 22.9495C136.708 18.9927 135.521 15.2337 133.147 14.838C130.179 13.8488 128.596 15.8272 126.816 18.9927C124.64 22.7516 124.64 26.5106 128.201 27.6977Z" fill="#004888"/>
<path d="M155.7 39.1724C152.93 36.6004 149.567 37.5896 147.984 40.3594C147.193 41.5465 146.204 40.7551 146.797 39.1724C147.984 35.8091 148.38 33.0393 145.413 31.2587C143.632 30.0717 143.236 29.8739 141.456 27.3019C140.269 25.7192 138.488 25.5214 136.708 26.7084C134.531 28.6868 131.762 29.4782 128.992 29.4782C128.003 29.4782 126.816 29.4782 125.826 29.4782C124.441 29.4782 124.046 29.8739 123.452 30.6652C120.287 35.2156 121.078 39.1724 124.639 40.5573C126.024 41.1508 127.013 41.3486 127.805 43.1292C128.794 45.1076 129.981 46.0968 131.762 46.2946C132.355 46.2946 133.146 46.8881 133.74 47.4817C135.323 49.8558 137.103 50.845 139.675 50.0536C142.247 49.2622 144.621 47.086 146.204 43.9205C146.6 43.1292 147.589 43.327 148.578 44.3162C150.952 46.8881 154.118 45.7011 156.294 42.7335C156.887 41.7443 156.689 39.9637 155.7 39.1724Z" fill="#004888"/>
<path d="M140.269 23.9387C143.632 25.9171 146.6 23.7409 148.38 20.7732C151.15 16.2229 149.963 14.6402 148.38 13.8488C147.193 13.2553 143.434 12.0683 139.873 16.2229C137.103 19.3884 137.697 22.5538 140.269 23.9387Z" fill="#004888"/>
<path d="M155.107 23.1474C151.15 22.1582 149.172 26.5107 148.578 27.8956C146.797 31.4567 148.38 33.4351 150.359 34.0286C152.733 34.6221 154.909 32.8416 156.689 29.2804C158.866 24.7301 157.283 23.7409 155.107 23.1474Z" fill="#004888"/>
<path d="M139.675 5.53955C125.035 5.53955 113.165 17.41 113.165 32.0502C113.165 40.7552 117.319 48.2731 123.65 53.2191H124.837C118.902 48.4709 115.341 41.3487 115.341 33.2372C115.341 19.1905 126.816 7.7158 140.862 7.7158C153.128 7.7158 163.416 16.4208 165.79 28.0934C164.01 15.2337 152.93 5.53955 139.675 5.53955Z" fill="#004888"/>
<path fill-rule="evenodd" clip-rule="evenodd" d="M16.6186 44.3162L20.1797 23.543H28.0933L28.6868 19.5862H5.34166L4.55029 23.543H12.4639L8.70494 44.3162H16.6186Z" fill="#004888"/>
<path fill-rule="evenodd" clip-rule="evenodd" d="M34.2264 44.3162L38.5789 19.5862H30.6652L26.3127 44.3162H34.2264Z" fill="#004888"/>
<path d="M55.5932 23.1474C60.3414 22.9495 63.309 24.3344 63.7047 24.5322L64.496 20.1798C61.9241 19.5862 59.3522 19.1906 56.7803 19.1906H55.3954C45.7012 19.1906 39.766 26.5107 38.5789 33.0394V33.2372C38.3811 34.0286 38.3811 34.82 38.3811 35.6113C38.3811 41.1509 41.7444 44.9098 48.6688 44.9098C48.8667 44.9098 49.0645 44.9098 49.4602 44.9098C49.658 44.9098 49.658 44.9098 49.8559 44.9098C53.417 44.9098 57.176 44.5141 60.3414 43.7228L62.3198 32.8415H54.604L53.2191 40.1616C52.2299 40.3595 51.2407 40.1616 50.2515 39.766C47.2839 38.7768 45.7012 35.6113 46.2947 32.8415C46.8882 28.0934 50.6472 23.3452 55.5932 23.1474Z" fill="#004888"/>
<path fill-rule="evenodd" clip-rule="evenodd" d="M78.147 44.3162H86.0606L81.906 33.0393C85.4671 31.4566 87.4455 28.2912 87.6433 24.5322C87.6433 22.1581 85.8628 19.5862 80.9168 19.5862H66.8701L62.5176 44.5141H70.4312L74.1902 23.543C74.1902 23.543 76.5643 23.543 77.5535 23.543C78.9383 23.543 79.9276 24.1365 79.9276 25.5214C79.9276 27.8955 77.5535 31.0609 74.1902 31.0609H73.3988L78.147 44.3162Z" fill="#004888"/>
<path fill-rule="evenodd" clip-rule="evenodd" d="M87.0498 44.3162L91.6001 19.5862H110.197L109.406 23.7408H98.7224L97.5354 29.676H106.24L105.449 33.435H96.9418L95.7548 40.1616H106.438L105.845 44.3162H87.0498Z" fill="#004888"/>
<path d="M8.114 54.2736H6.123C5.892 54.2736 5.76 54.3726 5.727 54.6146L4.572 61.9296C4.528 62.1936 4.682 62.2156 5.166 62.2156C5.639 62.2156 5.804 62.1936 5.848 61.9296L6.211 59.6306H7.421C9.478 59.6306 10.765 58.4646 10.765 56.5506C10.765 55.0216 9.742 54.2736 8.114 54.2736ZM7.509 58.5856H6.376L6.893 55.3076H8.004C8.972 55.3076 9.467 55.7366 9.467 56.6606C9.467 57.8706 8.785 58.5856 7.509 58.5856ZM12.9172 59.9826C14.5122 59.9826 15.7332 59.3226 15.7332 57.9806C15.7332 57.1446 15.1722 56.5176 13.9952 56.5176C12.0592 56.5176 10.9922 58.2006 10.9922 60.0376C10.9922 61.6216 11.9272 62.3036 13.1922 62.3036C13.8192 62.3036 14.3802 62.1496 14.8642 61.8966C15.1282 61.7646 15.2272 61.6546 15.2272 61.3906C15.2272 61.1706 15.0732 60.8626 14.8752 60.8626C14.6992 60.8626 14.1932 61.3246 13.3792 61.3246C12.7522 61.3246 12.2352 61.0276 12.2352 59.9716V59.9496C12.4772 59.9716 12.7082 59.9826 12.9172 59.9826ZM13.8522 57.4636C14.3032 57.4636 14.6002 57.6616 14.6002 58.0906C14.6002 58.8386 13.8302 59.1136 12.6862 59.1136H12.3232C12.5102 58.1896 13.0162 57.4636 13.8522 57.4636ZM20.0685 56.5396C19.3865 56.5396 18.7595 56.8696 18.2425 57.4196L18.1985 56.8586C18.1435 56.6496 18.0665 56.6056 17.7255 56.6056C17.3515 56.6056 17.2745 56.6606 17.2305 56.9246L16.4385 61.9296C16.3945 62.1936 16.5485 62.2156 16.9995 62.2156C17.4505 62.2156 17.6045 62.1936 17.6485 61.9296L18.1435 58.7726C18.1875 58.5196 18.2645 58.3546 18.4295 58.2006C18.7925 57.8486 19.1995 57.6946 19.6505 57.6946C19.7935 57.6946 19.9145 57.7056 20.0465 57.7056C20.3105 57.7056 20.4975 57.3206 20.4975 56.9246C20.4975 56.6606 20.4205 56.5396 20.0685 56.5396ZM25.3648 54.0316C25.0238 53.8996 24.6938 53.8336 24.2978 53.8336C23.0658 53.8336 22.2408 54.5156 22.0318 55.8576L21.9108 56.6606L21.2838 56.7706C21.1188 56.8036 21.0748 56.8696 21.0308 57.1446C20.9868 57.4306 20.9978 57.5406 21.1848 57.5406H21.7678L21.0748 61.9296C21.0308 62.1936 21.1848 62.2156 21.6358 62.2156C22.0868 62.2156 22.2408 62.1936 22.2848 61.9296L22.9778 57.5406H24.2648C24.4628 57.5406 24.5178 57.4086 24.5728 57.0786C24.6278 56.7486 24.6168 56.6276 24.3968 56.6276H23.1208L23.2418 55.8576C23.3518 55.1756 23.7368 54.8456 24.2868 54.8456C24.8588 54.8456 25.1228 55.1206 25.2878 55.1206C25.4968 55.1206 25.6948 54.8016 25.6948 54.5266C25.6948 54.2846 25.6068 54.1306 25.3648 54.0316ZM26.6829 62.3036C28.6849 62.3036 29.7189 60.6096 29.7189 58.7836C29.7189 57.1886 28.8169 56.5176 27.5959 56.5176C25.5829 56.5176 24.5489 58.2006 24.5489 60.0376C24.5489 61.6326 25.4509 62.3036 26.6829 62.3036ZM26.8369 61.3576C26.2759 61.3576 25.8029 61.0166 25.8029 59.9716C25.8029 58.6846 26.3749 57.4636 27.4529 57.4636C28.0139 57.4636 28.4759 57.7826 28.4759 58.8386C28.4759 60.1256 27.9149 61.3576 26.8369 61.3576ZM34.1837 56.5396C33.5017 56.5396 32.8747 56.8696 32.3577 57.4196L32.3137 56.8586C32.2587 56.6496 32.1817 56.6056 31.8407 56.6056C31.4667 56.6056 31.3897 56.6606 31.3457 56.9246L30.5537 61.9296C30.5097 62.1936 30.6637 62.2156 31.1147 62.2156C31.5657 62.2156 31.7197 62.1936 31.7637 61.9296L32.2587 58.7726C32.3027 58.5196 32.3797 58.3546 32.5447 58.2006C32.9077 57.8486 33.3147 57.6946 33.7657 57.6946C33.9087 57.6946 34.0297 57.7056 34.1617 57.7056C34.4257 57.7056 34.6127 57.3206 34.6127 56.9246C34.6127 56.6606 34.5357 56.5396 34.1837 56.5396ZM41.8011 56.5396C41.0751 56.5396 40.4151 56.9136 39.8761 57.5186C39.7221 56.9246 39.3151 56.5396 38.5561 56.5396C37.8741 56.5396 37.2361 56.8806 36.7191 57.4196L36.6751 56.8586C36.6201 56.6496 36.5431 56.6056 36.2021 56.6056C35.8281 56.6056 35.7511 56.6606 35.7071 56.9246L34.9151 61.9296C34.8711 62.1936 35.0251 62.2156 35.4761 62.2156C35.9271 62.2156 36.0811 62.1936 36.1251 61.9296L36.6201 58.7726C36.6641 58.5196 36.7631 58.3326 36.9061 58.1896C37.2141 57.8706 37.6431 57.6176 38.0391 57.6176C38.6221 57.6176 38.7541 58.1016 38.6661 58.6736L38.1491 61.9296C38.1051 62.1936 38.2591 62.2156 38.7211 62.2156C39.1721 62.2156 39.3151 62.1936 39.3591 61.9296L39.8651 58.7726C39.9091 58.5196 39.9971 58.3326 40.1511 58.1786C40.4481 57.8706 40.8881 57.6176 41.2731 57.6176C41.8561 57.6176 41.9991 58.1016 41.9111 58.6736L41.3941 61.9296C41.3501 62.1936 41.5041 62.2156 41.9551 62.2156C42.4171 62.2156 42.5601 62.1936 42.6041 61.9296L43.1321 58.5746C43.3081 57.4416 42.9451 56.5396 41.8011 56.5396ZM49.0698 56.6056C48.7398 56.6056 48.6188 56.6386 48.5308 56.8586L48.3328 57.3646C47.9918 56.8146 47.4748 56.5286 46.8148 56.5286C45.2198 56.5286 44.1748 58.2006 44.1748 60.0376C44.1748 61.6326 44.9998 62.2926 45.9678 62.2926C46.6058 62.2926 47.1888 62.0176 47.6948 61.4786L47.7388 61.9626C47.7608 62.1936 47.8598 62.2156 48.2008 62.2156C48.5748 62.2156 48.6628 62.1606 48.7068 61.8966L49.4988 56.9246C49.5428 56.6606 49.4548 56.6056 49.0698 56.6056ZM47.9808 58.9376C47.9368 59.2676 47.8818 59.6086 47.8268 59.9276C47.7718 60.2686 47.6948 60.4776 47.5078 60.7086C47.1888 61.1156 46.7818 61.3136 46.3748 61.3136C45.8248 61.3136 45.4288 60.9946 45.4288 59.9716C45.4288 58.7176 45.9788 57.5186 46.9468 57.5186C47.3758 57.5186 47.6838 57.7496 47.8818 58.1346C48.0028 58.3766 48.0248 58.6296 47.9808 58.9376ZM54.0591 56.5396C53.3221 56.5396 52.6511 56.8806 52.1231 57.4416L52.0571 56.8586C52.0351 56.6496 51.9581 56.6056 51.6171 56.6056C51.2431 56.6056 51.1661 56.6606 51.1221 56.9246L50.3301 61.9296C50.2861 62.1936 50.4401 62.2156 50.8911 62.2156C51.3421 62.2156 51.4961 62.1936 51.5401 61.9296L52.0351 58.7726C52.0681 58.5306 52.1781 58.3326 52.3211 58.1896C52.6291 57.8706 53.0911 57.6176 53.5311 57.6176C54.1691 57.6176 54.3121 58.1016 54.2241 58.6736L53.7071 61.9296C53.6631 62.1936 53.8171 62.2156 54.2681 62.2156C54.7301 62.2156 54.8731 62.1936 54.9171 61.9296L55.4451 58.5746C55.6211 57.4526 55.2581 56.5396 54.0591 56.5396ZM58.6409 62.3036C59.2019 62.3036 59.6859 62.1936 60.1809 61.9626C60.4449 61.8416 60.5659 61.6876 60.5659 61.4236C60.5659 61.2036 60.4009 60.8956 60.2139 60.8956C60.0269 60.8956 59.6199 61.3026 58.9049 61.3026C58.2779 61.3026 57.7609 60.9836 57.7609 59.9056C57.7609 58.7946 58.3219 57.5296 59.5539 57.5296C60.1919 57.5296 60.4449 57.9036 60.6429 57.9036C60.8629 57.9036 61.0719 57.5956 61.0719 57.2986C61.0719 57.0346 60.9949 56.8696 60.7529 56.7596C60.4009 56.6056 60.0489 56.5176 59.5539 56.5176C57.5409 56.5176 56.5069 58.2006 56.5069 60.0376C56.5069 61.6326 57.4089 62.3036 58.6409 62.3036ZM63.5666 59.9826C65.1616 59.9826 66.3826 59.3226 66.3826 57.9806C66.3826 57.1446 65.8216 56.5176 64.6446 56.5176C62.7086 56.5176 61.6416 58.2006 61.6416 60.0376C61.6416 61.6216 62.5766 62.3036 63.8416 62.3036C64.4686 62.3036 65.0296 62.1496 65.5136 61.8966C65.7776 61.7646 65.8766 61.6546 65.8766 61.3906C65.8766 61.1706 65.7226 60.8626 65.5246 60.8626C65.3486 60.8626 64.8426 61.3246 64.0286 61.3246C63.4016 61.3246 62.8846 61.0276 62.8846 59.9716V59.9496C63.1266 59.9716 63.3576 59.9826 63.5666 59.9826ZM64.5016 57.4636C64.9526 57.4636 65.2496 57.6616 65.2496 58.0906C65.2496 58.8386 64.4796 59.1136 63.3356 59.1136H62.9726C63.1596 58.1896 63.6656 57.4636 64.5016 57.4636Z" fill="#004888"/>
</svg>
